<svg width="143" height="308" viewBox="0 0 143 308" fill="none" xmlns="http://www.w3.org/2000/svg">
<path fill-rule="evenodd" clip-rule="evenodd" d="M70.4692 58.6089C63.7009 52.7726 56.3789 47.7305 48.6523 43.5227L24.0762 135.353L-81.0845 163.531L-130.433 114.172C-133.571 123.66 -135.577 133.508 -136.392 143.496L-88.5935 191.32L44.4736 155.665L70.4692 58.6089ZM-133.079 183.978L-96.3797 220.679L65.8961 177.197L91.4304 81.8833C93.4451 84.7803 95.3547 87.7856 97.1511 90.897C131.77 150.859 111.226 227.532 51.2637 262.151C-8.6983 296.77 -85.3714 276.226 -119.991 216.264C-125.974 205.9 -130.31 195.037 -133.079 183.978ZM-74.1031 45.0096C-40.7773 25.769 -2.28964 23.568 31.2714 35.7034L23.0406 37.9088L2.70024 113.809L-73.3448 134.185L-101.062 106.462L-118.761 88.7692C-108.176 71.2019 -93.1222 55.9903 -74.1031 45.0096Z" fill="#151F29"/>
</svg>
