<svg width="1080" height="1080" viewBox="0 0 1080 1080" fill="none" xmlns="http://www.w3.org/2000/svg">
<rect width="1080" height="1080" fill="#081420"/>
<mask id="mask0_100:459" style="mask-type:alpha" maskUnits="userSpaceOnUse" x="0" y="0" width="1080" height="1080">
<rect width="1080" height="1080" fill="#081420"/>
</mask>
<g mask="url(#mask0_100:459)">
<path d="M197 416.514C294.613 416.514 375 337.55 375 238.486L19.0001 238.486C19.0001 337.55 97.9517 416.514 197 416.514Z" fill="#151F29"/>
<path d="M197 204.029C294.613 204.029 375 125.064 375 26L19.0001 26C19.0001 125.064 97.9517 204.029 197 204.029Z" fill="#151F29"/>
<path d="M197 841.486C294.613 841.486 375 761.086 375 663.458L19.0001 663.458C19.0001 761.086 97.9517 841.486 197 841.486Z" fill="#151F29"/>
<path d="M197 629C294.613 629 375 548.6 375 450.972L19.0001 450.972C19.0001 548.6 97.9517 629 197 629Z" fill="#151F29"/>
<path d="M197 1053.97C294.613 1053.97 375 973.572 375 875.943L19.0001 875.943C19.0001 973.572 97.9517 1053.97 197 1053.97Z" fill="#151F29"/>
<path fill-rule="evenodd" clip-rule="evenodd" d="M1358.54 665.548C1342.65 643.043 1324.41 622.979 1304.36 605.498L1258.53 776.738L972.724 853.321L795.238 675.797C782.158 695.82 771.285 717.086 762.726 739.193L819.959 796.418L952.315 928.847L1313.97 831.941L1358.54 665.548ZM742.334 819.812L931.153 1008.64L1372.19 890.463L1406.36 762.913C1451.79 911.261 1390.86 1076.6 1250.77 1157.49C1087.8 1251.58 879.418 1195.74 785.329 1032.77C746.641 965.763 733.302 891.076 742.334 819.812ZM910.044 567.329C1016.19 506.043 1141.61 508.366 1242.17 562.472L1200.44 718.183L993.759 773.562L918.427 698.215L842.741 622.556L836.684 624.179C857.927 602.469 882.45 583.261 910.044 567.329Z" fill="#151F29"/>
<path d="M290.879 497.274V394.283L289 375.488L290.879 364.212H324.897V497.274H290.879Z" fill="white"/>
<path d="M386.832 497.274V394.283L349.244 396.162V364.212H459.19V396.162L420.662 394.283V467.204L422.729 485.998L420.662 497.274H386.832Z" fill="white"/>
<path d="M292.759 712.274V609.658L289 590.488L292.759 579.212H385.79L395.187 584.85L382.783 611.162L365.868 609.283H324.709L326.588 629.956H377.145V659.087H354.404L326.588 657.208V682.392L328.656 701.186L326.588 712.274H292.759Z" fill="white"/>
<path d="M420.721 712.274L416.962 700.998L420.721 682.204V579.212H513.752L523.149 584.85L510.744 611.162L493.83 609.283H454.55V629.956H505.106V659.087H482.929L454.55 657.208V682.204H510.744L533.11 700.246L522.021 712.274H420.721Z" fill="white"/>
<path d="M602.737 714.154C595.846 714.154 589.331 713.527 583.191 712.274C577.052 710.896 571.727 709.267 567.216 707.388C562.706 705.509 559.386 703.754 557.256 702.126V668.484C563.27 671.867 570.85 675.062 579.996 678.069C589.143 680.951 599.292 682.392 610.443 682.392C614.954 682.392 618.274 681.828 620.404 680.7C622.659 679.447 623.787 677.317 623.787 674.31C623.787 671.053 621.281 668.359 616.269 666.229C611.383 663.974 603.614 661.217 592.964 657.959C584.695 655.328 577.616 652.446 571.727 649.314C565.964 646.056 561.516 642.047 558.383 637.286C555.376 632.399 553.873 626.197 553.873 618.68C553.873 610.911 555.877 603.895 559.887 597.63C563.896 591.365 570.161 586.416 578.681 582.783C587.201 579.149 598.102 577.332 611.383 577.332C615.392 577.332 619.652 577.52 624.163 577.896C628.799 578.147 632.495 578.523 635.251 579.024L656.489 594.623L649.159 617.552L604.617 605.336C599.48 605.336 595.658 606.401 593.152 608.531C590.772 610.661 589.582 613.229 589.582 616.236C589.582 619.87 591.649 622.752 595.784 624.882C599.918 627.012 605.87 629.142 613.638 631.272C625.917 634.655 635.439 638.413 642.205 642.548C648.971 646.683 653.732 651.381 656.489 656.644C659.245 661.781 660.623 667.607 660.623 674.122C660.623 686.151 655.8 695.861 646.152 703.253C636.504 710.52 622.033 714.154 602.737 714.154Z" fill="white"/>
<path d="M718.923 712.274V609.283L681.335 611.162V579.212H791.281V611.162L752.753 609.283V682.204L754.82 700.998L752.753 712.274H718.923Z" fill="white"/>
<rect x="556.498" y="356.373" width="226.578" height="169.637" stroke="white" stroke-width="4.7451"/>
<path d="M615.812 432.902V421.761C615.812 421.761 616.319 421.44 617.334 420.799C618.35 420.158 619.659 419.276 621.262 418.154C622.865 417.032 624.601 415.776 626.472 414.387C628.342 412.997 630.105 411.555 631.762 410.059C634.166 407.975 636.17 406.131 637.773 404.528C639.376 402.872 640.578 401.242 641.38 399.639C642.181 398.036 642.582 396.192 642.582 394.108C642.582 390.689 640.311 388.979 635.769 388.979C633.525 388.979 631.254 389.273 628.956 389.86C626.712 390.395 624.628 391.036 622.705 391.784C620.834 392.532 619.365 393.173 618.296 393.708V380.082C619.846 379.227 622.331 378.265 625.75 377.196C629.17 376.128 633.338 375.593 638.254 375.593C645.2 375.593 650.277 377.063 653.483 380.002C656.689 382.887 658.292 387.269 658.292 393.147C658.292 396.192 657.731 398.918 656.609 401.322C655.487 403.727 654.044 405.891 652.28 407.814C650.517 409.685 648.62 411.314 646.59 412.704C644.613 414.093 642.716 415.268 640.899 416.23C639.082 417.139 637.586 417.887 636.41 418.474L636.811 420.078L658.292 418.474V432.902H615.812Z" fill="white"/>
<path d="M701.842 433.703C697.3 433.703 693.213 432.768 689.579 430.898C685.999 429.028 683.167 425.982 681.083 421.761C678.999 417.486 677.957 411.742 677.957 404.528C677.957 397.368 678.999 391.677 681.083 387.456C683.167 383.181 685.999 380.109 689.579 378.238C693.213 376.315 697.3 375.353 701.842 375.353C706.438 375.353 710.525 376.315 714.105 378.238C717.686 380.162 720.518 383.261 722.602 387.536C724.685 391.757 725.727 397.421 725.727 404.528C725.727 411.635 724.685 417.326 722.602 421.6C720.518 425.875 717.686 428.974 714.105 430.898C710.525 432.768 706.438 433.703 701.842 433.703ZM701.842 419.757C704.728 419.757 706.892 418.635 708.335 416.391C709.831 414.146 710.579 410.192 710.579 404.528C710.579 398.864 709.831 394.91 708.335 392.666C706.892 390.421 704.728 389.299 701.842 389.299C699.01 389.299 696.846 390.448 695.35 392.746C693.854 395.044 693.106 398.971 693.106 404.528C693.106 410.085 693.854 414.013 695.35 416.31C696.846 418.608 699.01 419.757 701.842 419.757Z" fill="white"/>
<path d="M615.812 502.651V491.51C615.812 491.51 616.319 491.19 617.334 490.549C618.35 489.907 619.659 489.026 621.262 487.904C622.865 486.781 624.601 485.526 626.472 484.136C628.342 482.747 630.105 481.304 631.762 479.808C634.166 477.724 636.17 475.881 637.773 474.278C639.376 472.621 640.578 470.992 641.38 469.389C642.181 467.786 642.582 465.942 642.582 463.858C642.582 460.438 640.311 458.728 635.769 458.728C633.525 458.728 631.254 459.022 628.956 459.61C626.712 460.144 624.628 460.786 622.705 461.534C620.834 462.282 619.365 462.923 618.296 463.457V449.832C619.846 448.977 622.331 448.015 625.75 446.946C629.17 445.877 633.338 445.343 638.254 445.343C645.2 445.343 650.277 446.813 653.483 449.751C656.689 452.637 658.292 457.019 658.292 462.896C658.292 465.942 657.731 468.667 656.609 471.072C655.487 473.476 654.044 475.64 652.28 477.564C650.517 479.434 648.62 481.064 646.59 482.453C644.613 483.843 642.716 485.018 640.899 485.98C639.082 486.888 637.586 487.636 636.41 488.224L636.811 489.827L658.292 488.224V502.651H615.812Z" fill="white"/>
<path d="M698.396 502.651V461.854H688.778V449.11L713.144 445.904L713.945 450.713L713.144 458.728V502.651H698.396Z" fill="white"/>
<path fill-rule="evenodd" clip-rule="evenodd" d="M49.5 1280C212.148 1280 344 1148.15 344 985.5C344 822.852 212.148 691 49.5 691C-113.148 691 -245 822.852 -245 985.5C-245 1148.15 -113.148 1280 49.5 1280ZM49.5001 1229.21C184.1 1229.21 293.215 1120.1 293.215 985.5C293.215 850.9 184.1 741.785 49.5001 741.785C-85.0997 741.785 -194.215 850.9 -194.215 985.5C-194.215 1120.1 -85.0997 1229.21 49.5001 1229.21Z" fill="#C83661"/>
<path fill-rule="evenodd" clip-rule="evenodd" d="M49.4999 1193.89C164.588 1193.89 257.886 1100.59 257.886 985.5C257.886 870.412 164.588 777.114 49.4999 777.114C-65.5883 777.114 -158.886 870.412 -158.886 985.5C-158.886 1100.59 -65.5883 1193.89 49.4999 1193.89ZM49.5001 1148.62C139.589 1148.62 212.62 1075.59 212.62 985.5C212.62 895.411 139.589 822.38 49.5001 822.38C-40.5889 822.38 -113.62 895.411 -113.62 985.5C-113.62 1075.59 -40.5889 1148.62 49.5001 1148.62Z" fill="#C83C32"/>
<path fill-rule="evenodd" clip-rule="evenodd" d="M907.745 348.094L1124 223.227V-38.2269L897.5 -169L671 -38.2269V223.227L897.5 354L907.745 348.094ZM990.26 253.221L897.5 306.748L711.98 199.601V-14.6933L897.5 -121.84L1083.02 -14.6933V199.601L990.26 253.221Z" fill="#C73D1B"/>
<path fill-rule="evenodd" clip-rule="evenodd" d="M907.653 256.082L1044.35 177.175V7.82515L897.5 -76.9882L750.653 7.82515V177.175L897.5 261.988L907.653 256.082ZM950.571 184.189L897.592 214.829L791.726 153.734V31.2665L897.592 -29.8286L1003.37 31.2665V153.734L950.571 184.189Z" fill="#D88520"/>
<path fill-rule="evenodd" clip-rule="evenodd" d="M907.745 164.07L931.096 150.596L964.693 131.215V53.8772L931.096 34.4966L897.5 15.116L863.903 34.4966L830.307 53.8772V131.215L863.903 150.596L897.5 169.976L907.745 164.07ZM910.606 115.249L897.5 122.817L884.393 115.249H884.301L871.287 107.774V77.3185L884.301 69.8431H884.393L897.5 62.2755L910.606 69.8431H910.698L923.712 77.3185V107.774L910.606 115.249Z" fill="#C73D1B"/>
</g>
<g clip-path="url(#clip0_100:459)">
<path d="M1022.29 1068H1018C1018 1057.48 1023.46 1052.02 1028.53 1047.34C1033.21 1043.05 1037.5 1038.77 1037.5 1030.19C1037.5 1021.62 1033.21 1017.33 1028.14 1012.65C1023.46 1007.59 1018 1002.52 1018 991.994C1018 981.47 1023.46 976.014 1028.53 971.336C1033.21 966.659 1037.5 962.372 1037.5 953.797C1037.5 945.222 1033.21 940.934 1028.14 936.257C1023.46 931.58 1018 926.123 1018 915.599C1018 905.075 1023.46 899.618 1028.53 894.941C1033.21 890.264 1037.5 885.976 1037.5 877.401C1037.5 868.826 1033.21 864.539 1028.14 859.861C1023.46 855.184 1018 849.727 1018 839.203C1018 828.68 1023.46 823.223 1028.53 818.545C1033.21 814.258 1037.5 809.97 1037.5 801.395C1037.5 792.82 1033.21 788.533 1028.14 783.856C1023.46 778.789 1018 773.722 1018 763.198C1018 752.674 1023.46 747.217 1028.53 742.54C1033.21 737.863 1037.5 733.575 1037.5 725H1041.79C1041.79 735.524 1036.33 740.981 1031.26 745.658C1026.97 750.335 1022.29 754.623 1022.29 763.198C1022.29 771.773 1026.58 776.06 1031.65 780.737C1036.72 785.415 1042.18 790.872 1042.18 801.395C1042.18 811.919 1036.72 817.376 1031.65 822.053C1026.97 826.731 1022.29 831.018 1022.29 839.593C1022.29 848.168 1026.58 852.456 1031.65 857.133C1036.72 861.81 1042.18 867.267 1042.18 877.791C1042.18 888.315 1036.72 893.772 1031.65 898.449C1026.97 903.126 1022.29 907.414 1022.29 915.989C1022.29 924.564 1026.58 928.851 1031.65 933.528C1036.72 938.206 1042.18 943.662 1042.18 954.186C1042.18 964.71 1036.72 970.167 1031.65 974.844C1026.97 979.522 1022.29 983.809 1022.29 992.384C1022.29 1000.96 1026.58 1005.25 1031.65 1009.92C1036.72 1014.6 1042.18 1020.06 1042.18 1030.58C1042.18 1041.11 1036.72 1046.56 1031.65 1051.24C1026.97 1055.14 1022.29 1059.42 1022.29 1068Z" fill="#C83C32"/>
<path d="M1041.4 1068H1037.11C1037.11 1057.48 1042.57 1052.02 1047.64 1047.34C1052.31 1042.66 1056.99 1038.38 1056.99 1029.8C1056.99 1021.23 1052.7 1016.94 1047.64 1012.26C1042.57 1007.59 1037.11 1002.13 1037.11 991.605C1037.11 981.081 1042.57 975.624 1047.64 970.947C1052.31 966.269 1056.99 961.982 1056.99 953.407C1056.99 944.832 1052.7 940.544 1047.64 935.867C1042.57 931.19 1037.11 925.733 1037.11 915.209C1037.11 904.685 1042.57 899.228 1047.64 894.551C1052.31 889.874 1056.99 885.586 1056.99 877.011C1056.99 868.436 1052.7 864.149 1047.64 859.472C1042.57 854.794 1037.11 849.338 1037.11 838.814C1037.11 828.29 1042.57 822.833 1047.64 818.156C1052.31 813.478 1056.99 809.191 1056.99 800.616C1056.99 792.041 1052.7 787.753 1047.64 783.076C1042.57 778.399 1037.11 772.942 1037.11 762.418C1037.11 751.894 1042.57 746.438 1047.64 741.76C1052.31 737.863 1056.6 733.575 1056.6 725H1060.89C1060.89 735.524 1055.43 740.981 1050.36 745.658C1045.69 750.335 1041.4 754.623 1041.4 763.198C1041.4 771.773 1045.69 776.06 1050.75 780.737C1055.82 785.415 1061.28 790.872 1061.28 801.395C1061.28 811.919 1055.82 817.376 1050.75 822.053C1045.69 826.341 1041.4 830.628 1041.4 839.203C1041.4 847.778 1045.69 852.066 1050.75 856.743C1055.82 861.42 1061.28 866.877 1061.28 877.401C1061.28 887.925 1055.82 893.382 1050.75 898.059C1045.69 902.736 1041.4 907.024 1041.4 915.599C1041.4 924.174 1045.69 928.461 1050.75 933.139C1055.43 937.816 1060.89 943.273 1060.89 953.797C1060.89 964.32 1055.43 969.777 1050.36 974.455C1045.69 979.132 1041.4 983.419 1041.4 991.994C1041.4 1000.57 1045.69 1004.86 1050.75 1009.53C1055.82 1014.21 1061.28 1019.67 1061.28 1030.19C1061.28 1040.72 1055.82 1046.17 1050.75 1050.85C1045.69 1055.14 1041.4 1059.42 1041.4 1068Z" fill="#C83C32"/>
<path d="M1060.11 1068H1055.82C1055.82 1057.48 1061.28 1052.02 1066.35 1047.34C1071.03 1042.66 1075.71 1038.38 1075.71 1029.8C1075.71 1021.23 1071.42 1016.94 1066.35 1012.26C1061.28 1007.59 1055.82 1002.13 1055.82 991.605C1055.82 981.081 1061.28 975.624 1066.35 970.947C1071.03 966.269 1075.71 961.982 1075.71 953.407C1075.71 944.832 1071.42 940.544 1066.35 935.867C1061.28 931.19 1055.82 925.733 1055.82 915.209C1055.82 904.685 1061.28 899.229 1066.35 894.551C1071.03 889.874 1075.71 885.587 1075.71 877.012C1075.71 868.437 1071.42 864.149 1066.35 859.472C1061.28 854.794 1055.82 849.338 1055.82 838.814C1055.82 828.29 1061.28 822.833 1066.35 818.156C1071.03 813.479 1075.71 809.191 1075.71 800.616C1075.71 792.041 1071.42 787.754 1066.35 783.076C1061.28 778.399 1055.82 772.942 1055.82 762.418C1055.82 751.895 1061.28 746.438 1066.35 741.76C1071.03 737.083 1075.71 732.796 1075.71 724.221H1080C1080 734.745 1074.54 740.201 1069.47 744.879C1064.79 749.556 1060.11 753.843 1060.11 762.418C1060.11 770.993 1064.4 775.281 1069.47 779.958C1074.54 784.635 1080 790.092 1080 800.616C1080 811.14 1074.54 816.597 1069.47 821.274C1064.79 825.951 1060.11 830.239 1060.11 838.814C1060.11 847.389 1064.4 851.676 1069.47 856.354C1074.54 861.031 1080 866.488 1080 877.012C1080 887.535 1074.54 892.992 1069.47 897.669C1064.79 902.347 1060.11 906.634 1060.11 915.209C1060.11 923.784 1064.4 928.072 1069.47 932.749C1074.54 937.426 1080 942.883 1080 953.407C1080 963.931 1074.54 969.388 1069.47 974.065C1064.79 978.742 1060.11 983.03 1060.11 991.605C1060.11 1000.18 1064.4 1004.47 1069.47 1009.14C1074.54 1013.82 1080 1019.28 1080 1029.8C1080 1040.33 1074.54 1045.78 1069.47 1050.46C1064.79 1055.14 1060.11 1059.43 1060.11 1068Z" fill="#C83C32"/>
</g>
<defs>
<clipPath id="clip0_100:459">
<rect width="62" height="343" fill="white" transform="translate(1018 725)"/>
</clipPath>
</defs>
</svg>
