<svg width="77" height="181" viewBox="0 0 77 181" fill="none" xmlns="http://www.w3.org/2000/svg">
<path fill-rule="evenodd" clip-rule="evenodd" d="M2.52812 178.029L77 135.039V45.0236L-1 0L-79 45.0236V135.039L-1 180.063L2.52812 178.029ZM30.9438 145.366L-1 163.795L-64.8875 126.905V53.126L-1 16.2365L62.8875 53.126V126.905L30.9438 145.366Z" fill="#C73D1B"/>
<path fill-rule="evenodd" clip-rule="evenodd" d="M2.49667 146.351L49.57 119.184V60.8788L-0.99966 31.6786L-51.5693 60.8788V119.184L-0.99966 148.384L2.49667 146.351ZM17.2766 121.599L-0.967873 132.148L-37.4251 111.113V68.9494L-0.967873 47.9151L35.4576 68.9494V111.113L17.2766 121.599Z" fill="#D88520"/>
<path fill-rule="evenodd" clip-rule="evenodd" d="M2.52832 114.672L10.5699 110.033L22.1396 103.361V76.734L10.5699 70.0615L-0.999798 63.389L-12.5695 70.0615L-24.1392 76.734V103.361L-12.5695 110.033L-0.999798 116.706L2.52832 114.672ZM3.51365 97.8637L-0.999798 100.469L-5.51324 97.8637H-5.54503L-10.0267 95.29V84.8046L-5.54503 82.2309H-5.51324L-0.999798 79.6254L3.51365 82.2309H3.54544L8.0271 84.8046V95.29L3.51365 97.8637Z" fill="#C73D1B"/>
</svg>
