<svg width="215" height="76" viewBox="0 0 215 76" fill="none" xmlns="http://www.w3.org/2000/svg">
<path d="M83.4918 11.459C83.4918 11.459 71.1378 9.00809 63.9337 12.9705V0.0349121H46.1118V8.23634C46.1118 8.23634 46.4108 15.1605 35.2728 16.5328C24.1347 17.9052 0.114624 24.8293 0.114624 48.3136V75.756C0.114624 75.756 11.0211 77.6253 16.2755 67.679C16.2755 67.679 26.1406 77.0791 46.1144 71.2595C46.1144 71.2595 58.4217 66.7327 62.0549 54.2655C65.688 41.7983 59.0085 27.81 75.4503 26.4376C75.4503 26.4376 87.5493 25.0869 87.3998 41.9936C87.2503 58.9003 84.7207 73.057 98.4532 73.2342L105.194 73.216V40.2893C105.194 40.2893 106.244 17.6987 83.4961 11.459H83.4918ZM46.276 44.2016L46.2042 44.1437C46.4607 46.4832 46.0161 48.846 44.9271 50.9323C43.8381 53.0186 42.1537 54.7342 40.0877 55.8614C38.0218 56.9885 35.6675 57.4764 33.3238 57.263C30.9801 57.0495 28.7526 56.1445 26.9242 54.6627C25.0959 53.181 23.749 51.1893 23.0547 48.9407C22.3604 46.692 22.35 44.2877 23.0247 42.0331C23.6995 39.7785 25.0289 37.7752 26.8444 36.2776C28.6598 34.78 30.8793 33.8557 33.2211 33.6219L33.1485 33.5631C42.629 32.4742 46.8956 30.884 46.8956 30.884C46.1681 35.2831 45.9601 39.7523 46.276 44.1999" fill="white"/>
<path d="M0 0H6.59225C6.59225 0 14.1447 0.159017 16.6621 6.17311C17.1891 7.5405 17.4708 8.99009 17.4944 10.4553C17.4624 12.6236 17.4944 13.2053 17.4944 13.2053C17.4944 13.2053 5.3521 16.1643 0 26.9757V0Z" fill="white"/>
<path d="M121.934 33.7678V14.6131L121.585 11.1177L121.934 9.02051H128.261V33.7678H121.934Z" fill="white"/>
<path d="M139.78 33.7678V14.6131L132.789 14.9626V9.02051H153.237V14.9626L146.072 14.6131V28.1752L146.456 31.6705L146.072 33.7678H139.78Z" fill="white"/>
<path d="M122.284 74.0299V54.9451L121.585 51.3798L122.284 49.2826H139.586L141.334 50.3312L139.027 55.2248L135.881 54.8752H128.226L128.576 58.7201H137.978V64.138H133.749L128.576 63.7884V68.4722L128.96 71.9676L128.576 74.0299H122.284Z" fill="white"/>
<path d="M146.082 74.0299L145.383 71.9326L146.082 68.4373V49.2826H163.385L165.132 50.3312L162.825 55.2248L159.679 54.8752H152.374V58.7201H161.777V64.138H157.652L152.374 63.7884V68.4373H162.825L166.985 71.7928L164.923 74.0299H146.082Z" fill="white"/>
<path d="M179.934 74.3794C178.653 74.3794 177.441 74.2629 176.299 74.0299C175.157 73.7735 174.167 73.4706 173.328 73.1211C172.489 72.7715 171.872 72.4453 171.476 72.1424V65.8856C172.594 66.5148 174.004 67.109 175.705 67.6683C177.406 68.2042 179.294 68.4722 181.367 68.4722C182.206 68.4722 182.824 68.3674 183.22 68.1576C183.639 67.9246 183.849 67.5285 183.849 66.9692C183.849 66.3633 183.383 65.8623 182.451 65.4662C181.542 65.0468 180.097 64.5341 178.117 63.9282C176.579 63.4389 175.262 62.9029 174.167 62.3204C173.095 61.7145 172.268 60.9688 171.685 60.0833C171.126 59.1745 170.846 58.0211 170.846 56.6229C170.846 55.1782 171.219 53.8732 171.965 52.7081C172.711 51.543 173.876 50.6225 175.46 49.9467C177.045 49.271 179.072 48.9331 181.542 48.9331C182.288 48.9331 183.08 48.968 183.919 49.0379C184.781 49.0846 185.469 49.1545 185.981 49.2477L189.931 52.1488L188.568 56.4132L180.284 54.1412C179.328 54.1412 178.618 54.3393 178.152 54.7354C177.709 55.1315 177.488 55.6092 177.488 56.1685C177.488 56.8443 177.872 57.3802 178.641 57.7764C179.41 58.1725 180.517 58.5687 181.962 58.9648C184.245 59.594 186.016 60.293 187.275 61.062C188.533 61.831 189.418 62.7049 189.931 63.6836C190.444 64.639 190.7 65.7225 190.7 66.9343C190.7 69.1713 189.803 70.9772 188.009 72.3521C186.214 73.7036 183.523 74.3794 179.934 74.3794Z" fill="white"/>
<path d="M201.543 74.0299V54.8752L194.552 55.2248V49.2826H215V55.2248L207.835 54.8752V68.4373L208.219 71.9326L207.835 74.0299H201.543Z" fill="white"/>
<rect x="171.233" y="4.75185" width="42.3425" height="31.7525" stroke="white" stroke-width="0.679487"/>
<path d="M182.366 19.0861V17.0141C182.366 17.0141 182.46 16.9544 182.649 16.8352C182.838 16.7159 183.081 16.5519 183.38 16.3433C183.678 16.1346 184.001 15.901 184.349 15.6426C184.696 15.3843 185.024 15.1159 185.332 14.8377C185.78 14.4501 186.152 14.1072 186.45 13.8091C186.749 13.501 186.972 13.1979 187.121 12.8998C187.27 12.6017 187.345 12.2588 187.345 11.8712C187.345 11.2352 186.922 10.9172 186.078 10.9172C185.66 10.9172 185.238 10.9719 184.811 11.0812C184.393 11.1806 184.006 11.2998 183.648 11.4389C183.3 11.5781 183.027 11.6973 182.828 11.7967V9.26255C183.116 9.10355 183.578 8.92467 184.214 8.72591C184.85 8.52716 185.626 8.42778 186.54 8.42778C187.832 8.42778 188.776 8.70107 189.372 9.24765C189.968 9.78429 190.267 10.5992 190.267 11.6924C190.267 12.2588 190.162 12.7656 189.953 13.2128C189.745 13.66 189.476 14.0625 189.149 14.4203C188.821 14.7681 188.468 15.0712 188.09 15.3296C187.722 15.588 187.37 15.8066 187.032 15.9855C186.694 16.1544 186.416 16.2936 186.197 16.4029L186.272 16.701L190.267 16.4029V19.0861H182.366Z" fill="white"/>
<path d="M198.366 19.2352C197.521 19.2352 196.761 19.0613 196.085 18.7134C195.42 18.3656 194.893 17.7991 194.505 17.0141C194.118 16.219 193.924 15.1507 193.924 13.8091C193.924 12.4774 194.118 11.4191 194.505 10.634C194.893 9.83895 195.42 9.26752 196.085 8.9197C196.761 8.56194 197.521 8.38306 198.366 8.38306C199.221 8.38306 199.981 8.56194 200.647 8.9197C201.313 9.27746 201.839 9.85386 202.227 10.6489C202.615 11.434 202.808 12.4874 202.808 13.8091C202.808 15.1308 202.615 16.1892 202.227 16.9842C201.839 17.7793 201.313 18.3557 200.647 18.7134C199.981 19.0613 199.221 19.2352 198.366 19.2352ZM198.366 16.6414C198.903 16.6414 199.305 16.4327 199.574 16.0153C199.852 15.5979 199.991 14.8625 199.991 13.8091C199.991 12.7557 199.852 12.0203 199.574 11.6029C199.305 11.1855 198.903 10.9768 198.366 10.9768C197.839 10.9768 197.437 11.1905 197.159 11.6178C196.88 12.0451 196.741 12.7756 196.741 13.8091C196.741 14.8426 196.88 15.5731 197.159 16.0004C197.437 16.4277 197.839 16.6414 198.366 16.6414Z" fill="white"/>
<path d="M182.366 32.0587V29.9867C182.366 29.9867 182.46 29.927 182.649 29.8078C182.838 29.6885 183.081 29.5246 183.38 29.3159C183.678 29.1072 184.001 28.8736 184.349 28.6153C184.696 28.3569 185.024 28.0885 185.332 27.8103C185.78 27.4227 186.152 27.0799 186.45 26.7817C186.749 26.4737 186.972 26.1705 187.121 25.8724C187.27 25.5743 187.345 25.2314 187.345 24.8438C187.345 24.2078 186.922 23.8898 186.078 23.8898C185.66 23.8898 185.238 23.9445 184.811 24.0538C184.393 24.1532 184.006 24.2724 183.648 24.4116C183.3 24.5507 183.027 24.6699 182.828 24.7693V22.2352C183.116 22.0762 183.578 21.8973 184.214 21.6985C184.85 21.4998 185.626 21.4004 186.54 21.4004C187.832 21.4004 188.776 21.6737 189.372 22.2203C189.968 22.7569 190.267 23.5718 190.267 24.665C190.267 25.2314 190.162 25.7383 189.953 26.1855C189.745 26.6327 189.476 27.0351 189.149 27.3929C188.821 27.7407 188.468 28.0438 188.09 28.3022C187.722 28.5606 187.37 28.7792 187.032 28.9581C186.694 29.127 186.416 29.2662 186.197 29.3755L186.272 29.6736L190.267 29.3755V32.0587H182.366Z" fill="white"/>
<path d="M197.725 32.0587V24.4712H195.936V22.101L200.468 21.5047L200.617 22.3991L200.468 23.8898V32.0587H197.725Z" fill="white"/>
</svg>
