<svg width="111" height="37" viewBox="0 0 111 37" fill="none" xmlns="http://www.w3.org/2000/svg">
<path d="M39.8861 5.86889C39.8861 5.86889 34.0248 4.70608 30.6069 6.58602V0.448845H22.1515V4.33993C22.1515 4.33993 22.2934 7.62501 17.009 8.27612C11.7247 8.92723 0.328613 12.2123 0.328613 23.3542V36.3739C0.328613 36.3739 5.50306 37.2608 7.99598 32.5419C7.99598 32.5419 12.6764 37.0017 22.1527 34.2406C22.1527 34.2406 27.9918 32.0929 29.7155 26.178C31.4393 20.263 28.2702 13.6265 36.0708 12.9753C36.0708 12.9753 41.8111 12.3345 41.7402 20.3557C41.6692 28.3769 40.4691 35.0934 46.9843 35.1775L50.1825 35.1689V19.5471C50.1825 19.5471 50.6806 8.82923 39.8881 5.86889H39.8861ZM22.2294 21.4033L22.1954 21.3758C22.317 22.4857 22.1061 23.6068 21.5894 24.5966C21.0728 25.5864 20.2736 26.4004 19.2934 26.9351C18.3133 27.4699 17.1963 27.7014 16.0844 27.6001C14.9724 27.4989 13.9156 27.0695 13.0482 26.3665C12.1807 25.6635 11.5417 24.7185 11.2123 23.6517C10.8829 22.5848 10.878 21.4441 11.1981 20.3744C11.5182 19.3048 12.149 18.3543 13.0103 17.6438C13.8716 16.9333 14.9246 16.4947 16.0356 16.3838L16.0012 16.356C20.4991 15.8393 22.5234 15.0849 22.5234 15.0849C22.1782 17.172 22.0795 19.2924 22.2294 21.4025" fill="white"/>
<path d="M0.274414 0.432442H3.40204C3.40204 0.432442 6.9852 0.507886 8.17959 3.36121C8.42959 4.00996 8.56325 4.6977 8.57444 5.39286C8.55927 6.4216 8.57444 6.69754 8.57444 6.69754C8.57444 6.69754 2.81366 8.10145 0.274414 13.2308V0.432442Z" fill="white"/>
<path d="M58.1247 16.4324V7.34472L57.9589 5.68637L58.1247 4.69137H61.1263V16.4324H58.1247ZM66.5913 16.4324V7.34472L63.2746 7.51055V4.69137H72.976V7.51055L69.5764 7.34472V13.7791L69.7588 15.4374L69.5764 16.4324H66.5913ZM58.2905 35.4324V26.3779L57.9589 24.6864L58.2905 23.6914H66.4993L67.3285 24.1889L66.234 26.5105L64.7415 26.3447H61.1097L61.2756 28.1689H65.7365V30.7393H63.7299L61.2756 30.5735V32.7957L61.458 34.454L61.2756 35.4324H58.2905ZM69.5815 35.4324L69.2499 34.4374L69.5815 32.7791V23.6914H77.7903L78.6195 24.1889L77.525 26.5105L76.0325 26.3447H72.5666V28.1689H77.0275V30.7393H75.0707L72.5666 30.5735V32.7791H77.525L79.4984 34.3711L78.52 35.4324H69.5815ZM85.6422 35.5983C85.0341 35.5983 84.4593 35.543 83.9175 35.4324C83.3758 35.3108 82.9059 35.1671 82.5079 35.0013C82.1099 34.8354 81.817 34.6807 81.629 34.5369V31.5685C82.1597 31.867 82.8286 32.1489 83.6356 32.4143C84.4427 32.6685 85.3382 32.7957 86.3221 32.7957C86.7201 32.7957 87.0131 32.7459 87.2011 32.6464C87.4001 32.5359 87.4996 32.3479 87.4996 32.0826C87.4996 31.7951 87.2784 31.5574 86.8362 31.3695C86.405 31.1705 85.7196 30.9273 84.7799 30.6398C84.0502 30.4077 83.4256 30.1534 82.9059 29.877C82.3974 29.5895 82.0049 29.2358 81.7285 28.8156C81.4632 28.3845 81.3305 27.8372 81.3305 27.1739C81.3305 26.4884 81.5074 25.8693 81.8612 25.3165C82.215 24.7638 82.7677 24.3271 83.5195 24.0065C84.2713 23.6858 85.2331 23.5255 86.405 23.5255C86.7588 23.5255 87.1347 23.5421 87.5327 23.5753C87.9418 23.5974 88.2679 23.6306 88.5111 23.6748L90.3851 25.0512L89.7383 27.0744L85.808 25.9965C85.3548 25.9965 85.0176 26.0904 84.7965 26.2784C84.5864 26.4663 84.4814 26.693 84.4814 26.9583C84.4814 27.2789 84.6638 27.5332 85.0286 27.7211C85.3935 27.9091 85.9186 28.097 86.604 28.285C87.6875 28.5835 88.5277 28.9151 89.1247 29.28C89.7217 29.6448 90.1418 30.0594 90.3851 30.5237C90.6283 30.977 90.7499 31.4911 90.7499 32.066C90.7499 33.1273 90.3243 33.9842 89.473 34.6364C88.6217 35.2777 87.3448 35.5983 85.6422 35.5983ZM95.8941 35.4324V26.3447L92.5775 26.5105V23.6914H102.279V26.5105L98.8792 26.3447V32.7791L99.0616 34.4374L98.8792 35.4324H95.8941Z" fill="white"/>
<rect x="81.5619" y="2.73526" width="19.9927" height="14.9683" stroke="white" stroke-width="0.418694"/>
<path d="M86.7959 9.48798V8.50492C86.7959 8.50492 86.8407 8.47664 86.9303 8.42006C87.0199 8.36348 87.1354 8.28568 87.2768 8.18667C87.4183 8.08766 87.5715 7.97686 87.7365 7.85427C87.9015 7.73168 88.0571 7.60438 88.2033 7.47236C88.4155 7.28848 88.5923 7.12582 88.7337 6.98437C88.8752 6.83821 88.9813 6.6944 89.052 6.55296C89.1227 6.41151 89.1581 6.24885 89.1581 6.06496C89.1581 5.76321 88.9577 5.61233 88.5569 5.61233C88.3589 5.61233 88.1585 5.63827 87.9558 5.69013C87.7577 5.73728 87.5739 5.79386 87.4041 5.85987C87.2391 5.92587 87.1094 5.98245 87.0151 6.0296V4.8273C87.1519 4.75186 87.3711 4.667 87.6729 4.5727C87.9746 4.4784 88.3424 4.43125 88.7762 4.43125C89.3891 4.43125 89.837 4.56091 90.1199 4.82023C90.4028 5.07484 90.5442 5.46146 90.5442 5.9801C90.5442 6.24885 90.4947 6.48931 90.3957 6.70148C90.2967 6.91365 90.1694 7.1046 90.0138 7.27434C89.8582 7.43936 89.6908 7.58316 89.5117 7.70575C89.3372 7.82834 89.1699 7.93206 89.0095 8.01693C88.8492 8.09709 88.7172 8.16309 88.6135 8.21496L88.6489 8.35641L90.5442 8.21496V9.48798H86.7959Z" fill="white"/>
<path d="M94.387 9.55871C93.9862 9.55871 93.6256 9.47619 93.3049 9.31117C92.989 9.14615 92.7392 8.8774 92.5553 8.50492C92.3714 8.12773 92.2795 7.62088 92.2795 6.98437C92.2795 6.35257 92.3714 5.85044 92.5553 5.47796C92.7392 5.10077 92.989 4.82966 93.3049 4.66464C93.6256 4.4949 93.9862 4.41003 94.387 4.41003C94.7925 4.41003 95.1532 4.4949 95.4691 4.66464C95.785 4.83438 96.0349 5.10784 96.2188 5.48503C96.4026 5.85751 96.4946 6.35729 96.4946 6.98437C96.4946 7.61145 96.4026 8.11359 96.2188 8.49078C96.0349 8.86797 95.785 9.14144 95.4691 9.31117C95.1532 9.47619 94.7925 9.55871 94.387 9.55871ZM94.387 8.32812C94.6416 8.32812 94.8326 8.2291 94.9599 8.03108C95.0919 7.83305 95.1579 7.48415 95.1579 6.98437C95.1579 6.48459 95.0919 6.13569 94.9599 5.93766C94.8326 5.73964 94.6416 5.64062 94.387 5.64062C94.1371 5.64062 93.9462 5.74199 93.8142 5.94473C93.6821 6.14747 93.6161 6.49402 93.6161 6.98437C93.6161 7.47472 93.6821 7.82126 93.8142 8.024C93.9462 8.22675 94.1371 8.32812 94.387 8.32812Z" fill="white"/>
<path d="M86.7959 15.6425V14.6595C86.7959 14.6595 86.8407 14.6312 86.9303 14.5746C87.0199 14.518 87.1354 14.4402 87.2768 14.3412C87.4183 14.2422 87.5715 14.1314 87.7365 14.0088C87.9015 13.8862 88.0571 13.7589 88.2033 13.6269C88.4155 13.443 88.5923 13.2804 88.7337 13.1389C88.8752 12.9927 88.9813 12.8489 89.052 12.7075C89.1227 12.566 89.1581 12.4034 89.1581 12.2195C89.1581 11.9177 88.9577 11.7669 88.5569 11.7669C88.3589 11.7669 88.1585 11.7928 87.9558 11.8447C87.7577 11.8918 87.5739 11.9484 87.4041 12.0144C87.2391 12.0804 87.1094 12.137 87.0151 12.1841V10.9818C87.1519 10.9064 87.3711 10.8215 87.6729 10.7272C87.9746 10.6329 88.3424 10.5858 88.7762 10.5858C89.3891 10.5858 89.837 10.7154 90.1199 10.9748C90.4028 11.2294 90.5442 11.616 90.5442 12.1346C90.5442 12.4034 90.4947 12.6438 90.3957 12.856C90.2967 13.0682 90.1694 13.2591 90.0138 13.4289C89.8582 13.5939 89.6908 13.7377 89.5117 13.8603C89.3372 13.9829 89.1699 14.0866 89.0095 14.1715C88.8492 14.2516 88.7172 14.3176 88.6135 14.3695L88.6489 14.5109L90.5442 14.3695V15.6425H86.7959Z" fill="white"/>
<path d="M94.0829 15.6425V12.0427H93.2342V10.9182L95.3842 10.6353L95.4549 11.0596L95.3842 11.7669V15.6425H94.0829Z" fill="white"/>
</svg>
