<svg width="62" height="343" viewBox="0 0 62 343" fill="none" xmlns="http://www.w3.org/2000/svg">
<path d="M4.28931 343H0C0 332.476 5.45912 327.019 10.5283 322.342C15.2075 318.055 19.4969 313.767 19.4969 305.192C19.4969 296.617 15.2075 292.33 10.1384 287.652C5.45912 282.585 0 277.518 0 266.994C0 256.47 5.45912 251.014 10.5283 246.336C15.2075 241.659 19.4969 237.372 19.4969 228.797C19.4969 220.222 15.2075 215.934 10.1384 211.257C5.45912 206.58 0 201.123 0 190.599C0 180.075 5.45912 174.618 10.5283 169.941C15.2075 165.264 19.4969 160.976 19.4969 152.401C19.4969 143.826 15.2075 139.539 10.1384 134.861C5.45912 130.184 0 124.727 0 114.203C0 103.68 5.45912 98.2227 10.5283 93.5455C15.2075 89.258 19.4969 84.9705 19.4969 76.3955C19.4969 67.8205 15.2075 63.533 10.1384 58.8557C5.45912 53.7886 0 48.7216 0 38.1977C0 27.6739 5.45912 22.217 10.5283 17.5398C15.2075 12.8625 19.4969 8.575 19.4969 0H23.7862C23.7862 10.5239 18.327 15.9807 13.2579 20.658C8.96855 25.3352 4.28931 29.6227 4.28931 38.1977C4.28931 46.7727 8.57862 51.0602 13.6478 55.7375C18.717 60.4148 24.1761 65.8716 24.1761 76.3955C24.1761 86.9193 18.717 92.3761 13.6478 97.0534C8.96855 101.731 4.28931 106.018 4.28931 114.593C4.28931 123.168 8.57862 127.456 13.6478 132.133C18.717 136.81 24.1761 142.267 24.1761 152.791C24.1761 163.315 18.717 168.772 13.6478 173.449C8.96855 178.126 4.28931 182.414 4.28931 190.989C4.28931 199.564 8.57862 203.851 13.6478 208.528C18.717 213.206 24.1761 218.662 24.1761 229.186C24.1761 239.71 18.717 245.167 13.6478 249.844C8.96855 254.522 4.28931 258.809 4.28931 267.384C4.28931 275.959 8.57862 280.247 13.6478 284.924C18.717 289.601 24.1761 295.058 24.1761 305.582C24.1761 316.106 18.717 321.562 13.6478 326.24C8.96855 330.137 4.28931 334.425 4.28931 343Z" fill="#C83C32"/>
<path d="M23.3958 343H19.1064C19.1064 332.476 24.5656 327.019 29.6347 322.342C34.314 317.665 38.9932 313.377 38.9932 304.802C38.9932 296.227 34.7039 291.94 29.6347 287.262C24.5656 282.585 19.1064 277.128 19.1064 266.605C19.1064 256.081 24.5656 250.624 29.6347 245.947C34.314 241.269 38.9932 236.982 38.9932 228.407C38.9932 219.832 34.7039 215.544 29.6347 210.867C24.5656 206.19 19.1064 200.733 19.1064 190.209C19.1064 179.685 24.5656 174.228 29.6347 169.551C34.314 164.874 38.9932 160.586 38.9932 152.011C38.9932 143.436 34.7039 139.149 29.6347 134.472C24.5656 129.794 19.1064 124.338 19.1064 113.814C19.1064 103.29 24.5656 97.833 29.6347 93.1557C34.314 88.4784 38.9932 84.1909 38.9932 75.6159C38.9932 67.0409 34.7039 62.7534 29.6347 58.0761C24.5656 53.3989 19.1064 47.942 19.1064 37.4182C19.1064 26.8943 24.5656 21.4375 29.6347 16.7602C34.314 12.8625 38.6033 8.575 38.6033 0H42.8926C42.8926 10.5239 37.4335 15.9807 32.3643 20.658C27.6851 25.3352 23.3958 29.6227 23.3958 38.1977C23.3958 46.7727 27.6851 51.0602 32.7542 55.7375C37.8234 60.4148 43.2826 65.8716 43.2826 76.3955C43.2826 86.9193 37.8234 92.3761 32.7542 97.0534C27.6851 101.341 23.3958 105.628 23.3958 114.203C23.3958 122.778 27.6851 127.066 32.7542 131.743C37.8234 136.42 43.2826 141.877 43.2826 152.401C43.2826 162.925 37.8234 168.382 32.7542 173.059C27.6851 177.736 23.3958 182.024 23.3958 190.599C23.3958 199.174 27.6851 203.461 32.7542 208.139C37.4335 212.816 42.8926 218.273 42.8926 228.797C42.8926 239.32 37.4335 244.777 32.3643 249.455C27.6851 254.132 23.3958 258.419 23.3958 266.994C23.3958 275.569 27.6851 279.857 32.7542 284.534C37.8234 289.211 43.2826 294.668 43.2826 305.192C43.2826 315.716 37.8234 321.173 32.7542 325.85C27.6851 330.137 23.3958 334.425 23.3958 343Z" fill="#C83C32"/>
<path d="M42.1135 343H37.8242C37.8242 332.476 43.2833 327.02 48.3525 322.342C53.0318 317.665 57.711 313.377 57.711 304.802C57.711 296.227 53.4217 291.94 48.3525 287.263C43.2833 282.585 37.8242 277.129 37.8242 266.605C37.8242 256.081 43.2833 250.624 48.3525 245.947C53.0318 241.27 57.711 236.982 57.711 228.407C57.711 219.832 53.4217 215.545 48.3525 210.867C43.2833 206.19 37.8242 200.733 37.8242 190.209C37.8242 179.685 43.2833 174.229 48.3525 169.551C53.0318 164.874 57.711 160.587 57.711 152.012C57.711 143.437 53.4217 139.149 48.3525 134.472C43.2833 129.795 37.8242 124.338 37.8242 113.814C37.8242 103.29 43.2833 97.8332 48.3525 93.1559C53.0318 88.4787 57.711 84.1912 57.711 75.6162C57.711 67.0412 53.4217 62.7537 48.3525 58.0764C43.2833 53.3991 37.8242 47.9423 37.8242 37.4184C37.8242 26.8946 43.2833 21.4377 48.3525 16.7605C53.0318 12.0832 57.711 7.7957 57.711 -0.779297H62.0003C62.0003 9.74457 56.5412 15.2014 51.472 19.8787C46.7928 24.5559 42.1135 28.8434 42.1135 37.4184C42.1135 45.9934 46.4028 50.2809 51.472 54.9582C56.5412 59.6355 62.0003 65.0923 62.0003 75.6162C62.0003 86.14 56.5412 91.5968 51.472 96.2741C46.7928 100.951 42.1135 105.239 42.1135 113.814C42.1135 122.389 46.4028 126.676 51.472 131.354C56.5412 136.031 62.0003 141.488 62.0003 152.012C62.0003 162.535 56.5412 167.992 51.472 172.67C46.7928 177.347 42.1135 181.634 42.1135 190.209C42.1135 198.784 46.4028 203.072 51.472 207.749C56.5412 212.426 62.0003 217.883 62.0003 228.407C62.0003 238.931 56.5412 244.388 51.472 249.065C46.7928 253.742 42.1135 258.03 42.1135 266.605C42.1135 275.18 46.4028 279.467 51.472 284.145C56.5412 288.822 62.0003 294.279 62.0003 304.802C62.0003 315.326 56.5412 320.783 51.472 325.46C46.7928 330.138 42.1135 334.425 42.1135 343Z" fill="#C83C32"/>
</svg>
