<svg width="669" height="390" viewBox="0 0 669 390" fill="none" xmlns="http://www.w3.org/2000/svg">
<path fill-rule="evenodd" clip-rule="evenodd" d="M488.014 -472.538C469.998 -474.823 451.637 -476 433 -476C422.577 -476 412.239 -475.632 402 -474.907V312.836L356.707 383.3C381.474 387.703 406.969 390 433 390C451.637 390 469.998 388.823 488.014 386.538V-472.538ZM579 364.769V-450.769C746.305 -390.859 866 -230.908 866 -43C866 144.908 746.305 304.859 579 364.769ZM0 -43C0 -239.783 131.27 -405.907 311.019 -458.581V172.54L210.68 328.645C84.4722 252.984 0 114.857 0 -43Z" fill="#F18505"/>
</svg>
